<?xml version="1.0" encoding="utf-8"?>
<!-- Generator: Adobe Illustrator 18.1.1, SVG Export Plug-In . SVG Version: 6.00 Build 0)  -->
<svg version="1.1" id="svg2" xmlns:svg="http://www.w3.org/2000/svg"
	 xmlns="http://www.w3.org/2000/svg" xmlns:xlink="http://www.w3.org/1999/xlink" x="0px" y="0px"
	 viewBox="0 0 266.625763 266.624176" enable-background="new 0 0 266.625763 266.624176" xml:space="preserve">
<path id="voice" fill="#294172" d="M266.625763,133.506134c0-73.524857-59.603546-133.13031-133.127838-133.13031
	C60.00668,0.37583,0.42639,59.931229,0.37425,133.412247v103.021057c0.03955,16.684326,13.571199,30.190872,30.26602,30.190872
	h102.911652C207.051666,266.595306,266.625763,207.011414,266.625763,133.506134"/>
<path id="in" fill="none" stroke="#3C6EB4" stroke-width="29.209999" d="M77.126289,142.097565h47.844749v47.844772
	c0,26.410294-21.434448,47.844727-47.844749,47.844727S29.28153,216.352631,29.28153,189.942337
	S50.715981,142.097565,77.126289,142.097565z"/>
<g id="finity" transform="matrix(-1,0,0,-1,249.71151,284.2882)">
	<path id="in_1_" fill="none" stroke="#3C6EB4" stroke-width="29.209999" d="M172.585236,142.190643h-47.844757V94.345871
		c0-26.410294,21.434448-47.844727,47.844757-47.844727s47.844757,21.434433,47.844757,47.844727
		S198.995544,142.190643,172.585236,142.190643z"/>
</g>
<path id="free" fill="#FFFFFF" d="M139.607407,127.529228v62.346184c0,34.504013-27.97538,62.479996-62.480614,62.479996
	c-5.23494,0-8.95649-0.591003-13.802353-1.857697c-7.065948-1.849121-12.840462-7.642532-12.842861-14.381119
	c0-8.145126,5.912361-14.069885,14.750294-14.069885c4.206367,0,5.732666,0.807648,11.89492,0.807648
	c18.191605,0,32.947639-14.735199,32.979546-32.926788v-28.65657c0-2.567749-2.086632-4.648254-4.658669-4.648254
	l-21.665207-0.004288c-8.072121,0-14.594009-6.438431-14.594009-14.532654
	c-0.004311-8.144562,6.588799-14.556572,14.748077-14.556572"/>
<g id="dom" transform="matrix(-1,0,0,-1,249.71152,284.28821)">
	<path id="free_1_" fill="#FFFFFF" d="M110.104111,156.758972V94.412796c0-34.504013,27.975388-62.479996,62.480606-62.479996
		c5.234955,0,8.956497,0.591003,13.802368,1.857697c7.065948,1.849121,12.840454,7.642532,12.84285,14.381119
		c0,8.145126-5.912354,14.069885-14.75029,14.069885c-4.20636,0-5.732666-0.807648-11.894928-0.807648
		c-18.191589,0-32.947632,14.735199-32.979538,32.926788v28.65657c0,2.567749,2.086624,4.648254,4.658676,4.648254
		l21.665192,0.004288c8.072128,0,14.594025,6.438431,14.594025,14.532654c0.004303,8.144562-6.588806,14.556564-14.748077,14.556564
		"/>
</g>
<path id="TM" fill="#3C6EB4" d="M243.654556,243.584244l0.000046-5.531387l-2.528534,5.79776l-2.461411-5.79776l0.000473,5.531387
	h-1.418304v-8.734909h1.487045l2.433975,5.580505l2.39711-5.580505h1.505432v8.734909H243.654556z M233.321533,236.312408v7.271835
	h-1.482117v-7.271835h-2.484894v-1.463074h6.449463v1.463074"/>
</svg>
