<?xml version="1.0" encoding="utf-8"?>
<!-- Generator: Adobe Illustrator 18.1.1, SVG Export Plug-In . SVG Version: 6.00 Build 0)  -->
<svg version="1.1" id="Layer_1" xmlns="http://www.w3.org/2000/svg" xmlns:xlink="http://www.w3.org/1999/xlink" x="0px" y="0px" height="57px" width="auto"
	 viewBox="0 0 192.75589 84" enable-background="new 0 0 192.75589 84" xml:space="preserve">
<g>
	<polygon fill-rule="evenodd" clip-rule="evenodd" fill="#FFFFFF" fill-opacity="0" points="0,-55 192.75589,-55 192.75589,137.75592 0,137.75592 
		0,-55 	"/>
	<polygon fill-rule="evenodd" clip-rule="evenodd" fill="#00529C" points="27.171204,61.229828 24.874573,55.635345 
		23.128693,61.229828 27.171204,61.229828 	"/>
	<polygon fill-rule="evenodd" clip-rule="evenodd" fill="#00529C" points="97.810287,61.229828 97.125427,49.887543 
		93.767517,61.229828 97.810287,61.229828 	"/>
	<path fill-rule="evenodd" clip-rule="evenodd" fill="#00529C" d="M57.035904,40.253723V7.115875H18.741516v33.512604
		l1.28183-4.27182l0.294525-0.980225h1.023315h8.205475h1.853271l-0.534882,1.774506
		c-0.844177,2.792145-2.075256,6.8703-3.410126,11.298309l12.561462-12.665192l0.403107-0.407623h0.57428h10.077759h3.489441
		l-2.550323,2.382233L34.617523,54.007446l3.382843,7.222382h12.708038L57.035904,40.253723L57.035904,40.253723z"/>
	<path fill-rule="evenodd" clip-rule="evenodd" fill="#00529C" d="M61.146423,7.115875v28.257996c2.669662,0,7.715897,0,7.732635,0
		c5.940842-0.072266,12.083801-0.14682,15.220627,3.576202c1.786118,2.119751,2.294067,5.095856,1.554794,9.098083
		c-0.680038,3.680511-3.920883,12.236603-19.290909,12.219879l-4.997192,0.001709l-0.219955,0.735596v0.224487h22.995209
		l7.62265-24.884796l0.297913-0.973114h1.017929h6.360657V7.115875H61.146423L61.146423,7.115875z"/>
	<polygon fill-rule="evenodd" clip-rule="evenodd" fill="#00529C" points="120.137665,61.229828 123.235641,50.809967 
		116.502243,61.229828 120.137665,61.229828 	"/>
	<path fill-rule="evenodd" clip-rule="evenodd" fill="#00529C" d="M130.894852,61.229828h4.380371
		c-0.009338-1.940582,0.290573-4.16748,1.06839-6.72464c1.53978-5.066345,3.415176-8.860809,5.502899-11.704224V7.115875h-38.295227
		v28.256042h1.426971h1.249786l0.119339,1.242981c0.060959,0.622192,1.197922,12.588379,0.914185,23.942261
		c2.66655-5.429749,7.335495-13.734131,15.174423-24.613495l0.412155-0.571747h0.704422h12.023987h1.761154l-0.425186,1.70871
		L130.894852,61.229828L130.894852,61.229828z"/>
	<path fill-rule="evenodd" clip-rule="evenodd" fill="#00529C" d="M145.956741,7.115875v31.415527
		c4.24971-3.262115,8.977325-3.930511,13.450134-3.930511c5.714905,0,10.215485,1.895813,12.670563,5.338196
		c1.888168,2.645569,2.360413,5.938019,1.295151,9.031464l-0.319183,0.929779l-0.983322-0.00061l-7.521194-0.009033
		l-2.201355-0.003418l0.959213-1.962982c0.018143-0.049042,0.047348-0.183411,0.067474-0.27356
		c0.028915-0.13208,0.061798-0.281494,0.108276-0.436798c0.392899-1.320648,0.35434-2.327545-0.115646-2.990845
		c-0.65593-0.923828-2.295502-1.47403-4.740097-1.589691c-5.566956-0.262451-9.186523,3.573669-11.739395,12.438171
		c-0.516174,1.793762-0.826019,3.419403-0.930618,4.857147v1.301117h13.398529l0.051865-0.165253h-6.291763h-1.87059
		l0.556137-1.785553l1.725754-5.535492l0.301331-0.967194h1.012543h15.509171h1.815033l-0.490402,1.747559l-1.881073,6.705933
		h14.458679V7.115875H145.956741L145.956741,7.115875z"/>
	<polygon fill-rule="evenodd" clip-rule="evenodd" fill="#00529C" points="120.137665,61.229828 123.235641,50.809967 
		116.502243,61.229828 120.137665,61.229828 	"/>
	<path fill-rule="evenodd" clip-rule="evenodd" fill="#00529C" d="M135.576553,35.371918h-12.023987h-0.704422l-0.412155,0.571747
		c-7.838928,10.879364-12.507874,19.183746-15.174423,24.613495c0.283737-11.353882-0.853226-23.320068-0.914185-23.942261
		l-0.119339-1.242981h-1.249786H93.080124h-1.017929l-0.297913,0.973114L80.557785,72.928131l-0.54425,1.779572h1.860641h6.874878
		h1.028137l0.291122-0.985596l7.057114-23.834564l1.420731,23.526459l0.077957,1.293701h1.29628h7.124039h0.748627
		l0.407608-0.629272l15.034973-23.268463l-6.578644,22.128937l-0.526688,1.768799h1.845367h8.485779h1.07518l0.259659-1.043701
		l9.116226-36.583374l0.425186-1.70871H135.576553L135.576553,35.371918z"/>
	<path fill-rule="evenodd" clip-rule="evenodd" fill="#FFFFFF" d="M126.461456,73.331238h-8.485779l9.314636-31.331635
		l-20.24588,31.331635h-7.124039L98.02742,41.995331l-9.278366,31.335907h-6.874878l11.205948-36.58255h11.898132
		c0,0,1.816437,18.776978,0.421783,31.649109c0,0,3.539917-11.3703,18.152527-31.649109h12.023987L126.461456,73.331238
		L126.461456,73.331238z"/>
	<path fill-rule="evenodd" clip-rule="evenodd" fill="#00529C" d="M172.077438,39.939087
		c-2.455078-3.442383-6.955658-5.338196-12.670563-5.338196c-8.411835,0-17.730453,2.364349-23.063263,19.904297
		c-2.314484,7.610748-0.462341,12.363037,1.499527,15.00946c3.346573,4.516144,9.156479,6.125366,13.4776,6.125366
		c4.619049,0,11.894455-0.754852,14.352097-1.728821l0.63385-0.250885l0.183655-0.656219l5.184006-18.480194l0.490402-1.747559
		h-1.815033h-15.509171h-1.012543l-0.301331,0.967194l-1.725754,5.535492l-0.556137,1.785553h1.87059h6.291763l-1.919601,6.049957
		c-0.378723,0.155334-1.533005,0.482208-4.578537,0.491516c-2.739975,0.009399-4.686813-0.723938-5.786926-2.180389
		c-1.523621-2.016846-1.604416-5.597565-0.234711-10.354095c2.552872-8.864502,6.17244-12.700623,11.739395-12.438171
		c2.444595,0.115662,4.084167,0.665863,4.740097,1.589691c0.469986,0.6633,0.508545,1.670197,0.115646,2.990845
		c-0.046478,0.155304-0.079361,0.304718-0.108276,0.436798c-0.020126,0.090149-0.049332,0.224518-0.067474,0.27356
		l-0.959213,1.962982l2.201355,0.003418l7.521194,0.009033l0.983322,0.00061l0.319183-0.929779
		C174.437851,45.877106,173.965607,42.584656,172.077438,39.939087L172.077438,39.939087z"/>
	<path fill-rule="evenodd" clip-rule="evenodd" fill="#FFFFFF" d="M172.071487,48.523254l-7.520599-0.009369
		c0.122162-0.25116,0.163849-0.615662,0.250305-0.907074c1.299683-4.362518-1.382751-6.124542-6.109238-6.3479
		c-6.977753-0.329132-10.75238,5.186829-13.126678,13.431976c-2.559677,8.889709-0.406769,14.31778,7.348267,14.291138
		c6.163071-0.020142,5.834839-1.289764,5.834839-1.289764l2.538986-8.003082h-8.171997l1.725174-5.536591h15.509171
		l-5.184006,18.479034c-2.072113,0.822021-8.952927,1.633331-13.844971,1.633331
		c-7.362427,0-18.056412-4.906219-13.660721-19.359497c5.25798-17.292786,14.383835-18.928925,21.746857-18.928925
		C170.168015,35.976532,174.000763,42.917725,172.071487,48.523254L172.071487,48.523254z"/>
	<path fill-rule="evenodd" clip-rule="evenodd" fill="#00529C" d="M54.560974,35.376434h-3.489441H40.993774h-0.57428
		l-0.403107,0.407623L27.454926,48.449249c1.334869-4.428009,2.565948-8.506165,3.410126-11.298309l0.534882-1.774506h-1.853271
		h-8.205475h-1.023315l-0.294525,0.980225L9.03656,72.956482l-0.532623,1.771362h1.849884h8.206299h1.115417l0.231323-1.091064
		c0.132355-0.530945,2.487091-8.378357,5.083374-17.00589l6.95932,17.236359l0.34726,0.860596h0.928345h8.935364h2.164276
		l-0.917877-1.959869l-8.789398-18.760529l17.393127-16.248779L54.560974,35.376434L54.560974,35.376434z"/>
	<path fill-rule="evenodd" clip-rule="evenodd" fill="#FFFFFF" d="M18.56012,73.351898h-8.206299l10.987366-36.599243h8.205475
		C29.546661,36.752655,18.718842,72.601288,18.56012,73.351898L18.56012,73.351898z"/>
	<polygon fill-rule="evenodd" clip-rule="evenodd" fill="#FFFFFF" points="24.9664,52.920074 24.9599,52.920074 
		40.993774,36.752655 51.071533,36.752655 32.946777,53.68512 42.160522,73.351898 33.225159,73.351898 24.961304,52.883209 
		24.9664,52.920074 	"/>
	<path fill-rule="evenodd" clip-rule="evenodd" fill="#00529C" d="M84.099686,38.950073
		c-3.136826-3.723022-9.279785-3.648468-15.220627-3.576202c-0.022415,0-9.348969,0-9.348969,0h-1.02272l-0.29454,0.978821
		L47.173035,72.953644l-0.534912,1.773651h1.852173h7.527954h1.02446l0.293381-0.982513l4.030289-13.475037l4.997192-0.001709
		c15.370026,0.016724,18.61087-8.539368,19.290909-12.219879C86.393753,44.045929,85.885803,41.069824,84.099686,38.950073
		L84.099686,38.950073z"/>
	<path fill-rule="evenodd" clip-rule="evenodd" fill="#FFFFFF" d="M84.300934,47.797852
		c-1.091049,5.903992-6.250397,11.107574-17.937363,11.093689l-6.022476,0.002533L56.01825,73.350769h-7.527954L59.53009,36.750122
		h9.326553C77.294815,36.648041,86.385254,36.518799,84.300934,47.797852L84.300934,47.797852z"/>
	<path fill-rule="evenodd" clip-rule="evenodd" fill="#00529C" d="M61.764069,53.519592
		c2.719284,0,4.705811,0.042511,6.535583,0.008789c5.50061-0.099792,7.186386-2.001282,8.426254-5.73053
		c2.151489-6.470917-3.355087-5.790314-11.607574-5.781525L61.764069,53.519592L61.764069,53.519592z"/>
</g>
</svg>
