<?xml version="1.0" encoding="utf-8"?>
<!-- Generator: Adobe Illustrator 18.1.1, SVG Export Plug-In . SVG Version: 6.00 Build 0)  -->
<svg version="1.1" id="Layer_1" xmlns="http://www.w3.org/2000/svg" xmlns:xlink="http://www.w3.org/1999/xlink" x="0px" y="0px"
	 viewBox="0 0 239 80.5" enable-background="new 0 0 239 80.5" xml:space="preserve">
<g>
	<path fill-rule="evenodd" clip-rule="evenodd" d="M69.4249191,62.5307961c0.7645416,0,1.1302795,0.0400696,1.1302795-0.6778259
		c0-1.5951538-1.7951965-6.3410034-5.8844452-6.3410034c-4.1558228,0-6.5163422,4.2670288-6.5163422,9.3719521
		c0,2.632019,1.7287598,8.1754761,6.7157898,8.1754761c2.9921417,0,5.8844452-2.8713379,5.8844452-3.7886963
		c0-0.1195068,0-0.2791138-0.1327667-0.2791138c-0.7315979,0-1.828598,2.0739746-4.687851,2.0739746
		c-2.0279236,0-5.3525391-1.9542236-5.3525391-8.5347633H69.4249191L69.4249191,62.5307961z M60.5814896,61.4540749
		c0-2.1932983,1.462738-5.0247803,3.5240631-5.0247803c1.828476,0,3.6902313,1.9938354,3.6902313,4.2272034
		c0,0.5983582-0.1994476,0.7975769-0.664917,0.7975769H60.5814896L60.5814896,61.4540749z"/>
	<path d="M85.2820358,55.5946999c-2.2626495-0.0375061-4.3815308,1.3968811-4.3139038,4.4299011
		c0.0617523,2.7604675,3.3110199,4.3373451,5.0617981,5.3873634c1.2969055,0.7389832,2.8265533,1.4425659,2.8056946,3.2127991
		c-0.0240173,2.0224304-1.5902252,3.36026-3.2731628,3.2479858c-3.9455872-0.0653992-3.4034729-5.0158691-4.1166687-5.0158691
		c-0.4864502,0-0.387085,1.2445374-0.3890686,1.9057007c-0.0046844,1.5675049-0.0704346,2.8544617,0.1195374,3.0825195
		c0.0603485,0.0721741,0.2506561,0.0370178,0.6331635,0.0370178c0.7781219,0,1.7266388,0.8603821,3.9960938,0.8603821
		c2.5431976,0.037262,4.8246002-2.3191223,4.8246002-5.2361755c0-1.7950745-0.5235901-2.9357605-2.9873352-4.4634438
		c-0.637619-0.3058472-1.5924683-0.8519287-2.0615692-1.1090393c-2.0362549-1.1156311-2.8414459-1.8447876-2.8964081-2.8865662
		C82.58918,57.2402382,84.1224594,56.305088,85.4502029,56.4361c3.1789398-0.0560303,3.6065674,3.5057678,3.9308167,3.5057678
		c0.4863281,0,0.35672-0.4668579,0.35672-1.5168762c0-0.2720947,0.0323486-1.5944519-0.1623077-1.9057007
		c-0.3888245-0.5833435-2.6388245-0.9245911-3.1903076-0.9245911c-0.1393433,0-0.6593018-0.0161743-0.7478943-0.0187683
		C85.4829025,55.5712624,85.2820358,55.5946999,85.2820358,55.5946999L85.2820358,55.5946999z"/>
	<path d="M94.3499985,49.6396828c-0.3991394,0-1.3963928,1.6748657-1.3963928,2.1136169
		c0,0.4387207,0.9972534,2.0739746,1.3963928,2.0739746c0.4321899,0,1.3963013-1.5953979,1.3963013-2.0739746
		C95.7462997,51.2746925,94.7821884,49.6396828,94.3499985,49.6396828L94.3499985,49.6396828z"/>
	<path d="M93.231102,68.9315567c0,3.6356506-1.6106262,2.2296143-1.8532104,3.116272
		c-0.1059265,0.3867188,0.6210938,0.4394531,0.8873444,0.4394531c0.3664551,0,1.2322235-0.1598511,2.2979279-0.1598511
		c1.3654785,0,2.3977814,0.1598511,3.0972748,0.1598511c0.4328918,0,0.7431946-0.1397095,0.6326904-0.4394531
		c-0.2854614-0.7755432-2.6309814-0.1598511-2.6309814-2.1972656V55.5089149c0-0.3996277-0.1997986-0.6391602-0.3995972-0.6391602
		c-0.7659454,0-1.2584839,1.4048462-3.3898926,2.1239319c-0.1663971,0.0400696-0.5568695,0.0707703-0.5568695,0.3103027
		c0,0.8390503,1.9637146-0.8362427,1.9153137,2.1998291V68.9315567L93.231102,68.9315567z"/>
	<path d="M7.8219085,52.0645485c0-2.4925842,1.7888789-1.9563293,1.8268428-2.5127563
		c0.0362244-0.5332031-1.584137-0.2179565-1.721374-0.2179565c-0.8504333,0-1.4494934,0.0968018-2.3273315,0.0968018
		c-0.7407532,0-1.6382751-0.1211853-2.351593-0.1211853c-0.1372375,0-0.6431274-0.0292969-0.7272644,0.1940613
		C2.2423797,50.2427406,4.80726,49.8490028,4.80726,51.8913307v10.8138428c0,5.331089,1.3728638,10.5508461,8.5867004,10.4200783
		c8.5563059-0.1553955,8.3954172-8.5507202,8.3954172-10.2471352v-9.8789063c0-3.184906,1.4292297-2.8830261,1.7022705-3.3745117
		c0.1211548-0.2182007-0.2991943-0.3152466-0.4364014-0.3152466c-0.4938354,0-1.6364136,0.1364136-2.1576538,0.1364136
		c-1.0699463,0-1.9605713-0.11203-3.0304871-0.11203c-0.0822449,0-0.5484314,0.0649109-0.5500793,0.2381287
		c-0.0074768,0.8285217,2.5514221-0.1385193,2.5514221,3.392334V63.328373c0,4.0849037-1.179718,8.3775063-6.3372812,8.3775063
		c-3.7035828,0-5.7092586-2.5270386-5.7092586-8.0660439V52.0645485L7.8219085,52.0645485z"/>
	<path d="M102.3619919,56.4032936c0-2.9414063,0.0331726-3.6801758-0.4237366-3.6801758
		c-0.4384003-0.0002136-0.3723145,0.1188354-0.7686462,1.4299316c-0.6617584,2.1883545-3.0718231,3.1478882-3.8402252,3.6248474
		c-0.1876221,0.091156-0.178833,0.1258545-0.1853943,0.2385864c-0.0164032,0.2784424,0.8431702,0.1640625,2.7574158,0.2128296
		l-0.008667,9.8507729c0,4.2077332,2.0751648,4.9211731,3.5765686,4.9211731c2.2846832,0,3.918869-1.6246948,4.0133209-2.1986694
		c0-0.3267212-0.0425415-0.357666-0.2274628-0.3295288c-0.318161,0.1537476-1.0442657,0.9393616-2.7741852,0.9393616
		c-1.3055878,0-2.0603943-0.776001-2.1256561-2.4508362V58.2370338c0,0,3.9090118-0.0105591,4.1271057-0.0105591
		c0.2691803,0,0.8178558-1.5721741,0.8485565-1.6593628c0.0728912-0.2062378-0.0996094-0.1572571-1.5444183-0.1638184H102.3619919
		L102.3619919,56.4032936z"/>
	<path d="M27.4862156,60.2097816c-0.0326843-0.6283569,1.1134033-3.0635376,3.8638-3.0635376
		c2.6520672,0,3.8309612,2.9458618,3.8309612,4.9096985v7.3448524c0,2.5530396-1.019989,1.9699097-1.4081116,2.5530396
		c-0.2174072,0.3267212,0.1638184,0.471344,0.589447,0.471344c0.4257507,0,1.1135254-0.1893921,2.3575745-0.1572876
		c1.4572144,0.0377502,2.4229736,0.1572876,2.8486023,0.1572876c0.3274231,0,1.7557983-1.4707031,1.2844849-1.4707031
		c-0.1191711,0-0.5696411,0.7153015-1.4042664,0.702179c-0.2118835,0-0.2515869,0.0335083-0.6357422-0.0663452
		c-0.7273865-0.1771851-1.2416992-0.5566406-1.2416992-2.3465576v-6.4806862c0-2.98526-0.949707-7.3450928-5.3371887-7.3450928
		c-3.1761456,0-4.813261,2.9010925-4.7478619,2.4297791v-2.1154785c0-0.3928223-0.1964111-0.6286011-0.3929443-0.6286011
		c-0.7530212,0-0.9439392,1.5049133-3.6098328,2.0617981c-0.1636963,0.0393677-0.6338501,0.0433655-0.6506348,0.3435974
		c0,0.8247681,2.2436829-0.7017212,2.2631531,2.1510925v9.7406349c0,2.5530396-1.9708862,1.9366455-2.3579407,2.6039124
		c-0.196991,0.3395996,0.5899048,0.4204712,1.0155334,0.4204712c0.3929443,0,1.0477905-0.1572876,2.7830811-0.1572876
		c1.8991699,0,2.5541077,0.1572876,3.1106262,0.1572876c0.4911499,0,1.0555115-0.218689,0.7203674-0.5498657
		c-0.5270081-0.5212402-2.8814087,0.0785217-2.8814087-2.6315613V60.2097816L27.4862156,60.2097816z"/>
	<path d="M49.4929581,59.8190651c-0.3988953-1.1964722-0.5651855-1.8344421-0.5651855-1.9542236
		c0-1.1964722,1.4906311-0.9222717,1.8201599-1.4238281c0.2120972-0.3224792-0.2241821-0.4905396-0.6897583-0.4905396
		c-0.3989258,0-0.8560486,0.133606-2.0859375,0.1633606c-1.0191956,0.0243835-1.7411804,0.0178223-2.1882629-0.0606995
		c-1.1450195-0.2011108-1.0534973,0.4113159-0.6523743,0.608429c0.3908386,0.1921997,0.5828857,0.0133667,1.1697693,1.6818848
		l5.0200806,13.758976c0.0998535,0.2791443,0.2327271,0.9569702,0.664917,0.9569702
		c0.4987488,0,0.4987488-0.4786072,1.1305084-2.1136169c0,0,4.7987213-13.0312538,5.1287079-13.5025673
		c0.6491089-0.9274292,1.1401215-0.6220398,1.3776703-0.8875732c0.2253418-0.2517395,0.2914429-0.6623535-0.7353516-0.5751648
		c-0.5652008,0-0.9925842,0.0970459-1.557785,0.0970459c-0.7314758,0-0.8694153-0.0246277-1.5672607-0.0485229
		c-0.8684692-0.0297852-1.1069489,0.0630493-1.0558624,0.3182678c0.1504669,0.7518921,1.9832916,0.0157166,1.7344971,2.2354736
		c-0.2093048,1.8672791-0.8312073,3.4694519-1.4629669,5.0648499L52.7511368,69.39048L49.4929581,59.8190651L49.4929581,59.8190651z
		"/>
	<path d="M75.099144,60.2786903c0-0.5041504,0.7761383-2.2886963,2.1021118-2.2886963
		c1.1641388,0,1.3079224,0.8922729,1.922348,0.8922729c0.3881226,0,1.1642456-1.1639099,1.1642456-1.7458496
		c0-0.7368774-1.4553375-1.745636-2.1343231-1.745636c-1.3583221,0-2.3104706,1.631012-2.9897003,2.756012h-0.064682v-2.4454651
		c0-0.3878784-0.1940613-0.620636-0.3880005-0.6208496c-0.5195007-0.0002441-0.9207458,1.0380554-3.6793365,1.6863098
		c-0.1616058,0.0386963-0.6216888,0.1293945-0.6216888,0.3623657c0,0.8144531,2.3312073-0.2449341,2.3283997,2.4513245v10.2731361
		c0,1.5906982-1.6494141,1.4355469-1.6494141,2.25c0,0.2327271,0.0970306,0.3492126,0.3557892,0.3492126
		c0.2263947,0,0.8085938-0.1551514,2.9751434-0.1551514c1.8109131,0,2.5871582,0.1551514,3.039856,0.1551514
		c0.3557739,0,0.5175018-0.0775757,0.5175018-0.4265747c0-1.2414856-2.8782501,0.620636-2.8782501-2.9870911V60.2786903
		L75.099144,60.2786903z"/>
	<path d="M42.3379593,49.6216469c-0.3991394,0-1.3965149,1.6750793-1.3965149,2.1138306
		c0,0.4385071,0.9973755,2.0737305,1.3965149,2.0737305c0.4320679,0,1.3963013-1.5951538,1.3963013-2.0737305
		C43.7342606,51.2568703,42.7700272,49.6216469,42.3379593,49.6216469L42.3379593,49.6216469z"/>
	<path d="M41.1414871,68.920784c0.0294189,2.6165771-1.1098938,2.7358704-1.6529236,2.7489929
		c-0.4868164,0.0365601-1.1094055-0.20578-1.1094055,0.1026611c0.0333862,0.3995972-0.3642273,0.5332031,1.4007263,0.6492004
		c0.7782288,0,1.6279602-0.1052246,2.6936646-0.1052246c1.3654785,0,2.3977966,0.1598511,3.0972595,0.1598511
		c0.4330139,0,0.7432251-0.1394653,0.6328125-0.4394531c-0.2855835-0.7755432-2.6309509-0.1598511-2.6309509-2.1972656V55.4978981
		c0-0.3993835-0.1998291-0.6391296-0.3996277-0.6391296c-0.7660522,0-1.2585754,1.4048157-3.3898621,2.124115
		c-0.1665344,0.039856-0.4733276,0.0731506-0.4733276,0.3128967c0,0.8388367,1.8210754-0.8006287,1.8316345,2.1970215V68.920784
		L41.1414871,68.920784z"/>
	<path fill-rule="evenodd" clip-rule="evenodd" d="M112.6126175,72.9715042l4.5496979-13.7632179
		c0.6650391-2.3927307,1.7183228-1.9551697,1.8759308-2.2823486c0.0972748-0.2017822-0.0616455-0.4000854-0.4605408-0.4000854
		c-0.3325806,0-1.182663,0.0501709-1.9473114,0.0501709c-0.9309387,0-1.387146-0.1106262-1.7862854-0.1106262
		c-0.5983582,0-1.1752777,0.0044556-1.0728455,0.3899841c0.1154175,0.434082,2.127655,0.2789307,2.127655,2.4325867
		c0,0.2791443,0,0.6382141-0.3989105,2.073761l-2.559967,8.015873l-3.5573425-9.8503456
		c0,0-0.1662903-0.3189697-0.1662903-0.9571838c0-1.5951538,1.8921204-1.4202881,1.9669952-1.7045898
		c0.0606995-0.2304077-0.2580414-0.4755554-0.7567902-0.4755554c-0.5320435,0-1.3143768,0.0065613-2.4934082,0.0065613
		c-0.9271851,0-1.6091003,0.0201416-2.3072968,0.0201416c-0.4653625,0-0.6649323,0.0797119-0.6649323,0.4786072
		c0,0.5582886,1.2632904,0.598114,1.5624695,1.4754028l3.6751099,10.2126503
		c0.2991791,0.8376465,0.4767303,1.1128235,0.8370819,2.5858459c0.2366028,0.9674988,0.149765,1.8288269,0.149765,1.8288269
		c-0.3577728,1.5368042-1.3159027,2.4143066-2.7783966,5.2490845c-0.140274,0.2718811,2.1108856-0.0250854,2.2225647-0.0602417
		c0.1786041-0.056488,0.1587982-0.1066284,0.3773499-0.5109253l1.7016754-4.9891663L112.6126175,72.9715042L112.6126175,72.9715042z
		"/>
	<path fill-rule="evenodd" clip-rule="evenodd" d="M197.5937347,71.9903946c-3.5885315,0-4.8467712-4.9134216-4.8467712-8.838047
		c0-3.4038391,1.0741577-6.5289917,4.0801239-6.5289917c3.6497955,0,4.8159332,4.2063293,4.8159332,8.3311195
		C201.6430206,69.9203873,200.1702118,71.9903946,197.5937347,71.9903946L197.5937347,71.9903946z M197.3176422,73.0439224
		c3.7727356,0,6.8800659-3.8704834,6.8800659-8.7963257c0-7.4486732-4.5795593-8.8242226-6.9106598-8.8242226
		c-3.8647308,0-6.9928131,4.2049255-6.9928131,9.1307716C190.2942352,69.9604874,193.3303375,73.0439224,197.3176422,73.0439224
		L197.3176422,73.0439224z"/>
	<path d="M125.4986801,49.9420204c-0.3939819,0-1.3790588,1.6539917-1.3790588,2.0871277
		c0,0.4333496,0.9850769,2.0479736,1.3790588,2.0479736c0.4267883,0,1.37883-1.5752563,1.37883-2.0479736
		C126.8775101,51.5566444,125.9254684,49.9420204,125.4986801,49.9420204L125.4986801,49.9420204z"/>
	<path d="M124.4077835,69.0510941c0,3.5899353-1.5905914,2.2017212-1.8302307,3.0768738
		c-0.104538,0.3820496,0.6133575,0.434082,0.8764343,0.434082c0.3617554,0,1.2168732-0.1577454,2.2692261-0.1577454
		c1.3483582,0,2.3695297,0.1525879,3.0584793,0.1047668c2.6013336-0.1806946,0.7339478-0.0845947,0.6248474-0.3811035
		c-0.075592-0.2050781,1.2606964-0.8732605-0.1044159-0.4490662c-1.524147-0.1192932-2.4937515-0.2479553-2.4937515-1.72052
		V55.7960243c0-0.3946838-0.1972351-0.6314087-0.394455-0.6314087c-0.7565613,0-1.2428894,1.3875122-3.34758,2.0976563
		c-0.1644135,0.0396118-0.5499573,0.0698547-0.5499573,0.3065491c0,0.8282776,1.939209-0.8261719,1.8914032,2.1719666V69.0510941
		L124.4077835,69.0510941z"/>
	<path d="M230.7072906,55.5564919c-2.3090668-0.038208-4.471405,1.4254761-4.4022827,4.5208435
		c0.0630493,2.8174438,3.3787537,4.4264259,5.1656342,5.4982338c1.3235168,0.7539673,2.8846893,1.4718628,2.8631287,3.278656
		c-0.0243683,2.0636597-1.622818,3.4291382-3.3403168,3.3147583c-4.0265503-0.0670166-3.4732056-5.118988-4.2011719-5.118988
		c-0.49617,0-0.394928,1.2698669-0.3970337,1.9448547c-0.0046844,1.5996094-0.0719604,2.9130554,0.1221161,3.1455383
		c0.0614014,0.0740662,0.2556915,0.0379944,0.6459351,0.0379944c0.7942963,0,1.7622681,0.8777161,4.0783539,0.8777161
		c2.5952454,0.038208,4.9235229-2.3664856,4.9235229-5.3432922c0-1.8320923-0.5343781-2.9960022-3.0487518-4.5553017
		c-0.6506195-0.3121948-1.6251526-0.8692932-2.1037445-1.1315613c-2.0779724-1.1383667-2.8996887-1.8827515-2.9559326-2.9458618
		c-0.0975037-1.8442993,1.4674072-2.7984314,2.8220978-2.664856c3.2444611-0.0571899,3.6806183,3.5777588,4.0115662,3.5777588
		c0.4964142,0,0.3639832-0.4762573,0.3639832-1.5480652c0-0.2777405,0.0330353-1.6272583-0.1654663-1.9446106
		c-0.3970337-0.5955505-2.6932068-0.9438171-3.2557068-0.9438171c-0.1422577,0-0.6728973-0.0164185-0.7633514-0.0192261
		C230.9123688,55.5325966,230.7072906,55.5564919,230.7072906,55.5564919L230.7072906,55.5564919z"/>
	<path d="M222.1907959,49.7092934c-0.391861,0-1.3715668,1.7165833-1.3715668,2.1661072
		c0,0.4497681,0.9797058,2.1255493,1.3715668,2.1255493c0.4246979,0,1.3715668-1.6350098,1.3715668-2.1255493
		C223.5623627,51.3850746,222.6154938,49.7092934,222.1907959,49.7092934L222.1907959,49.7092934z"/>
	<path d="M221.0154114,69.2067337c0,3.6372681-1.611557,2.2305298-1.8541412,3.1176453
		c-0.1059418,0.3867188,0.6213226,0.4396973,0.8878174,0.4396973c0.3665466,0,1.2330322-0.3719482,2.2992096-0.3719482
		c1.3661652,0,1.7097626,0.3719482,2.4096222,0.3719482c0.4331055,0,0.7436523-0.1926575,0.6330261-0.4928894
		c-0.2856903-0.7757874-1.9431915-0.1066589-1.9431915-2.1452332V55.7767982c0-0.3998413-0.1996918-0.6396179-0.3998566-0.6396179
		c-0.7661591,0-1.2590485,1.4057922-3.3916321,2.1253357c-0.1666412,0.0398254-0.4734344,0.0731201-0.4734344,0.3128662
		c0,0.8392944,1.6279755-1.0797424,1.8325806,2.1982117V69.2067337L221.0154114,69.2067337z"/>
	<path d="M133.6013794,60.2397804c-0.0325775-0.6288452,1.1138763-3.0653992,3.8657837-3.0653992
		c2.6534729,0,3.832962,2.9475098,3.832962,4.912262v7.3488197c0,2.5542297-1.0205841,1.9710999-1.4087067,2.5542297
		c-0.2176208,0.327179,0.1638336,0.4718018,0.5896912,0.4718018c0.4259796,0,1.1138611-0.1575012,2.3587494-0.1575012
		c1.6052399,0,2.4242554,0.1575012,2.8501129,0.1575012c0.3276672,0,0.9230957-0.2528992,0.5569916-0.5503235
		c-0.8269806-0.6717224-2.5553894,0.0785217-2.5553894-2.6329651v-6.4842262c0-2.9866333-0.9499207-7.3485718-5.3398743-7.3485718
		c-3.1777802,0-4.8157043,2.9024963-4.7503204,2.4309387v-2.1166687c0-0.3930359-0.1964111-0.6288147-0.3930511-0.6288147
		c-0.7536316,0-1.3135529,1.2883606-3.8770294,2.0629578c-0.1638184,0.0391541-0.6342163,0.0433655-0.6508484,0.3435974
		c0,0.82547,2.5215149-0.5414124,2.52948,2.1520386v9.746006c0,1.7573547-0.8474884,2.1506348-2.4379578,2.21698
		c-0.3212128,0.0935059,0.1995697,0.1799927,0.0787506,0.3881226c-0.1972351,0.3400574,0.5901489,0.420929,1.0160065,0.420929
		c0.3930511,0,1.0483551-0.1575012,2.784729-0.1575012c1.9000854,0,2.5552673,0.1575012,3.1121521,0.1575012
		c0.4914856,0,1.0560913-0.2186584,0.7207031-0.5503235c-0.5273438-0.5214844-2.8829346,0.0785217-2.8829346-2.6329651V60.2397804
		L133.6013794,60.2397804z"/>
	<path d="M156.56427,50.2523537c-0.2077637-0.0063477-0.4949951,0.0252991-0.4949951,0.0252991
		c-3.0469971-0.0503845-5.9029694,1.8778076-5.8119202,5.9620361c0.0829773,3.7174377,4.4614563,5.8439026,6.8191376,7.2579041
		c1.7463379,0.9949074,3.574585,2.5856056,3.5171509,4.3511696c-0.0882416,2.7220154-1.8805084,4.5-4.1466675,4.3488159
		c-5.3131714-0.0881042-4.5828552-6.7544556-5.5434418-6.7544556c-0.6549683,0-0.5212555,1.6760254-0.523941,2.5661926
		c-0.0062256,2.1107788-0.0949249,3.84375,0.1608887,4.1507568c0.0814514,0.09729,0.337616,0.0499268,0.8526611,0.0499268
		c1.0477753,0,2.3248749,1.1585388,5.3812408,1.1585388c3.4244537,0.0503845,6.2315674-2.9639282,6.2315674-6.8918152
		c0-2.4173279-0.7051086-3.9531898-4.022934-6.0105324c-0.8585052-0.4118042-2.1441803-1.1472778-2.7760468-1.4932251
		c-2.7418365-1.5023499-3.825943-2.484375-3.900116-3.8871155c-0.1286774-2.4332581,2.3639069-3.8742065,4.1518402-3.6979675
		c2.2674561,0,4.1390533,1.3110962,4.911911,4.1156311c0.0774536,0.2936707,0.3638611,0.9785156,0.6472168,0.9785156
		c0.2577057,0,0.3092651-0.2282715,0.2834778-0.4891357l-0.3864746-4.4353027
		c-0.0259094-0.3588257-0.1546936-0.4565735-0.3092651-0.4565735c-0.2575836,0-0.4151917,0.3588257-0.64711,0.3588257
		C160.5977478,51.4598427,159.6820526,50.2263222,156.56427,50.2523537L156.56427,50.2523537z"/>
	<path d="M167.4378662,56.6428261c0-2.9428101,0.0334015-3.7879639-0.4238586-3.7879639
		c-0.4386444-0.0004883-0.3723145,0.1188049-0.769104,1.430603c-0.6621094,2.1893005-3.0733643,3.1495361-3.8421173,3.6267395
		c-0.187851,0.0914001-0.1789398,0.1258545-0.1856232,0.2385864c-0.0162811,0.278656,0.8435211,0.1642761,2.7589417,0.2127991
		l-0.0087891,9.8561745c0,4.210083,2.0764465,4.9239807,3.5785522,4.9239807c2.2858734,0,3.92099-1.6256104,4.0153198-2.1998291
		c0-0.327179-0.0422974-0.3578796-0.2274628-0.3297729c-0.318161,0.1537476-1.0448456,0.9398499-2.775589,0.9398499
		c-1.3062897,0-2.061554-0.7764893-2.1268311-2.4522705V58.3715553c0,0,3.9111328-0.0107727,4.1294556-0.0107727
		c0.2692871,0,0.8186646-1.714447,0.8487854-1.8189697c0.0609436-0.2102356,0.0849609-0.4003296,0.1093445-0.5580444
		c0.0517883-0.3375244-0.1659393-0.3513489-0.3847351,0.0095825c-0.1390991,0.1624451-0.4533997,0.6494751-1.2698364,0.6494751
		H167.4378662L167.4378662,56.6428261z"/>
	<path d="M183.1474457,53.5350075c0-3.4638367,2.3839417-2.454834,2.4324646-3.0855408
		c0.0336304-0.4378357-0.3325806-0.3396301-0.7276306-0.3396301c-0.4559631,0-1.275238,0.1940613-3.0077209,0.1940613
		c-1.4894714,0-2.7985687-0.1530457-3.4368896-0.1530457c-0.3951569,0-0.7519836,0.1211853-0.6194458,0.4509583
		c0.2971802,0.7389832,2.5531616,0.0677185,2.5531616,2.13797v15.0096169c0,1.8712463,0.2601624,3.0674744-0.5300293,3.5451355
		c-0.9726715,0.6370239-2.1070404,0.6689148-2.0101318,1.0811768c0.0611725,0.2599182,0.5341492,0.2706909,0.807663,0.2706909
		c1.2158203,0,2.8972321-0.1600647,4.1130524-0.1999207c2.3099976-0.0796814,4.6199951,0.1591492,6.9299927,0.1591492
		c1.3372192,0,1.6728516-0.2941284,2.6453857-1.7275696c0.7294922-1.0352478,0.7216492-1.1514893,0.7216492-2.5846863
		c0-0.0796814-0.030365-0.4779053-0.2431641-0.4779053c-0.3951721,0-0.2971954,3.1976013-7.3183594,3.1976013
		c-2.5530548,0-2.3099976-0.9555664-2.3099976-3.3044739V53.5350075L183.1474457,53.5350075z"/>
	<path d="M214.615799,67.8138504c-0.1598511,1.7313232-1.6980438,3.6442871-3.5594482,3.6442871
		c-0.4246826,0-3.2001648-0.2861633-3.167572-4.6188354V56.4982033c0-0.7764893-0.4571533-0.9808655-0.5877075-0.9808655
		c-0.5225372,0-0.8164368,0.1225891-1.1756287,0.2043762c-0.3592834,0.1225891-0.8170166,0.2796326-1.7634277,0.2451782
		c-0.5070801-0.0185242-1.0650024-0.0911865-0.9758301,0.3679504c0.0789795,0.4066467,2.1187439,0,2.1187439,1.5532227v9.5235939
		c0,3.4741211,2.1553345,5.4771118,4.7676697,5.4771118c1.7308655,0,3.3309326-0.3569641,4.3432007-2.2781372h0.065155v1.6650085
		c0,0.1633606,0.0328064,0.6131287,0.2939148,0.6131287c0.4898376,0,0.7511597-0.3876648,1.1104584-0.5104675
		c0.3916473-0.0815735,0.4910126-0.4209595,1.7102356-0.5224304c0.5205536-0.0431213,1.1022644-0.3058777,1.1022644-0.6328125
		c-0.1875-0.6958618-1.8982086,0.0562439-1.8982086-1.0064087V56.4982033c0-0.7764893-0.4572601-0.9808655-0.5880432-0.9808655
		c-0.5224152,0-0.8160858,0.1225891-1.1753845,0.2043762c-0.3592987,0.1225891-0.7802429,0.29953-1.727356,0.29953
		c-0.1631165,0-1.0673218-0.1455383-1.0120239,0.3135986c0.055542,0.4603271,2.1035156,0.1957092,2.118988,1.5532227V67.8138504
		L214.615799,67.8138504z"/>
	<path d="M174.7498932,68.8263321c-0.3991394,0-1.3969879,1.6757813-1.3969879,2.1147766
		c0,0.4389648,0.9978485,2.0749207,1.3969879,2.0749207c0.4325409,0,1.39711-1.5960999,1.39711-2.0749207
		S175.1824341,68.8263321,174.7498932,68.8263321L174.7498932,68.8263321z"/>
	<path fill-rule="evenodd" clip-rule="evenodd" d="M203.2503662,41.8502235c-5.4050446,0-7.5299988-6.6670227-7.5299988-12.0977173
		c0-4.7104797,1.8478241-9.0496826,6.3751221-9.0496826c5.4974976,0,7.4838257,5.8356934,7.4838257,11.5434265
		C209.5793152,39.1178932,207.1309052,41.8502235,203.2503662,41.8502235L203.2503662,41.8502235z M202.8345795,43.4400063
		c5.6820679,0,9.9786377-5.2089844,9.9786377-12.0250854c0-10.3070984-6.513855-12.357666-10.0248108-12.357666
		c-5.820694,0-10.3018188,5.8186035-10.3018188,12.6347046C192.4865875,39.1732216,196.8291931,43.4400063,202.8345795,43.4400063
		L202.8345795,43.4400063z"/>
	<path d="M68.369072,25.2677345l-1.4888763-3.9794617c0,0-0.2327271,0.0970459,0.8375397-3.2027283l2.0936737-6.3088989
		c1.0236359-3.1059265,2.043869-4.7339168,3.3500366-4.7557063c1.6430969-0.0274353,1.6412201-1.0190735,0.384964-1.0190735
		c-1.2563629,0-2.0135193,0.0968018-3.1300812,0.0968018c-1.1633148,0-1.7681274-0.0968018-3.0243683-0.0968018
		c-0.4652405,0-0.9769897,0.1455688-0.9304657,0.5336914c0.046402,0.3881226,0.7443695,0.2425842,1.2562408,0.533905
		c0.8374176,0.4368591,1.3958282,2.2321773,0.7910156,4.1247554l-2.4659729,7.9104004l-2.7917633-7.3764954
		c-0.5583954-1.4074097-1.2956238-4.5014033,0.0566101-4.7812495c1.3034668-0.2695313,1.1268768-0.9450073,0.3358612-0.9450073
		c-1.5354004,0-2.3465729,0.1940613-3.835434,0.1940613c-1.6285553,0-2.8382874-0.1940613-4.3736725-0.1940613
		c-0.3256683,0-0.9305878,0.0485229-0.7443695,0.6794739c0.0930481,0.3881226,0.8840637,0.2423401,1.3492889,0.5336609
		c1.8610535,1.2131343,2.2333679,2.7660823,2.8846893,4.5131221l4.0944214,11.5985107
		c0.7444916,2.0866394,0.7910156,1.3101807,0.1860809,3.1057129l-3.5826569,9.8514709l-8.7936401-25.2836609
		c-0.6980591-1.8925781-1.0701294-3.2029719,0.4652405-3.9306941c0.6514587-0.3398438,0.8443451-0.4057007,0.9305878-0.533905
		c0.0863647-0.1282043,0.1661835-0.5676575-0.7910004-0.5336914c-1.5811157,0.0560303-2.5589294,0.1940613-4.1408386,0.1940613
		c-1.6750793,0-2.8381653-0.1940613-4.3736572-0.1940613c-0.5118713,0-0.6047974,0.2425842-0.6047974,0.6309509
		c0,0.5821838,1.2561035,0.1940613,2.3262634,1.455688c0.6049194,0.6794739,1.7681274,2.9601746,2.0471497,3.7851563
		l10.6209412,30.6323547c0.1937256,0.457489,0.2420044,1.349762,0.8714142,1.348114
		c0.4859772-0.0011597,0.580658-1.02771,0.75-1.4170227l5.5778961-15.374054l5.4435883,14.6071777
		c0.2327271,0.5826721,0.5459747,2.1820374,1.116684,2.1838989c0.4706268,0.0016479,0.6398468-0.7535095,0.8819427-1.4856873
		l10.5173492-30.2034302c0.8839417-2.4264832,1.9075775-4.9985347,3.5825348-5.2896113
		c0.6513367-0.0972595,0.9771118-0.3398438,0.9771118-0.3398438c0-0.4368896-0.0930481-0.5336914-0.6979675-0.5336914
		c-1.163208,0-1.8611755,0.1940613-3.0242615,0.1940613c-1.2562408,0-2.2332306-0.1455383-3.3035126-0.1455383
		c-0.6046906,0-0.5581665,0.1940613-0.5581665,0.5336914c0,0.3883362,1.1630859,0.1455383,1.8145294,1.6017146
		c0.3721924,0.7762451,0.2325134,2.426239-0.1395569,3.3967896l-8.9333344,24.6039734L68.369072,25.2677345L68.369072,25.2677345z"
		/>
	<path d="M188.0891266,19.7348366c0-4.2974854,0.0486145-5.7979736-0.618866-5.7979736
		c-0.6406708-0.0002136-0.5438843,0.1739197-1.1230164,2.0892334c-0.9669189,3.1968689-4.4878235,4.5989075-5.6103516,5.2954712
		c-0.2743378,0.1333618-0.2610931,0.1839905-0.2709351,0.3485107c-0.0239105,0.4068909,1.3382874,0.2399902,4.1350708,0.3110046
		l-0.0127716,14.391571c0,6.1471863,2.9252472,7.1896973,5.1187592,7.1896973c3.337738,0,5.7251892-2.3735046,5.8631287-3.2121277
		c0-0.477417-0.0618896-0.5223999-0.3322449-0.4813843c-0.4646301,0.2245178-1.5256653,1.3724976-4.0529175,1.3724976
		c-1.9072266,0-3.009964-1.1339111-3.1054688-3.5810242V22.3125038c0,0,5.7107849-0.0157166,6.0295258-0.0157166
		c0.39328,0,1.1593475-2.5776367,1.1864166-2.7098389c0.0665588-0.3236694,0.1772919-0.5842896,0.2127991-0.8146667
		c0.0758209-0.4928894-0.3062134-0.5350952-0.6524963-0.0152588c-0.2798462,0.2662659-0.5712891,0.9778137-1.7634277,0.9778137
		H188.0891266L188.0891266,19.7348366z"/>
	<path d="M218.4211121,25.7610817c-0.046402-0.8866272,1.5705414-4.3225708,5.4510956-4.3225708
		c3.7417908,0,5.4051514,4.156189,5.4051514,6.9271851v10.3624268c-0.045929,4.0659485-1.4393005,2.7796936-1.986557,3.6021118
		c-0.3070374,0.4612427,0.2308502,0.664917,0.8313293,0.664917c0.6006927,0,1.5710144-0.2214661,3.3262482-0.2214661
		c2.2635956,0,3.254303,0.2085876,3.8549957,0.2085876c0.4617157,0,1.3014984-0.35672,0.7853851-0.7757874
		c-1.1664734-0.947113-3.4685059,0.4933472-3.439209-3.7000732v-9.1434326c0-4.2114868-1.3396912-10.3626709-7.5299988-10.3626709
		c-4.4812622,0-6.7907867,4.2862549-6.6984406,3.6210938v-3.177887c0-0.5540466-0.2772675-0.8864136-0.5545349-0.8864136
		c-1.0624237,0-1.8520355,1.8168945-5.4670258,2.9085999c-0.2310944,0.055542-0.8943787,0.0614014-0.9178162,0.4849243
		c0,1.1636658,3.6290588-1.5142822,3.5669556,3.0346985v13.7427979c0,3.6021118-2.4044495,2.7325745-2.9503174,3.6738281
		c-0.2779541,0.4793091,0.4556274,0.5932007,1.0560913,0.5932007c0.5545349,0,1.4784546-0.2214661,3.9269562-0.2214661
		c2.6791534,0,3.6032867,0.2214661,4.388443,0.2214661c0.6930542,0,1.4892273-0.308197,1.0164795-0.7757874
		c-0.7436676-0.7352295-4.0652313,0.1108704-4.0652313-3.7129517V25.7610817L218.4211121,25.7610817z"/>
	<path fill-rule="evenodd" clip-rule="evenodd" d="M90.9862595,37.3000832c0,2.9371948-2.9814911,4.488739-4.6446075,4.488739
		c-2.448288,0-4.1646118-1.5921021-4.1646118-4.7507629c0-4.8766479,5.8526917-5.7633057,8.8092194-6.5390625V37.3000832
		L90.9862595,37.3000832z M90.6096115,29.0090675c-10.809845,2.1611633-12.3747559,5.7548523-12.3747559,8.691803
		c0,3.9344482,2.765976,5.6950684,5.7686615,5.6950684c2.5871582,0,5.1278992-1.2192078,7.068161-3.2142029
		c0.6004791,1.8285828,1.8023529,2.932251,3.6032867,2.8795166c0.6254272-0.01828,0.7185974,0.1549377,2.6159821-0.6668091
		c0.6870728-0.1773987,0.5940247-0.1640625,1.4597931-0.004425c1.3855133,0.1867676-1.9049988-5.23526-2.0249939-3.8632202
		c-0.0337524,0.3864746,0.1800079,2.8558655-1.0657043,2.9308472c-2.211441,0.1331482-1.678009-3.3817749-1.678009-5.2659302
		V24.7209511c-0.1071014-3.5128174-2.7512054-5.8040771-6.768158-5.8040771c-5.5151978,0-9.4585571,6.7943115-7.5899963,8.9064941
		c0.4470673,0.5055542,2.2451935-1.4383545,2.3533478-1.5415039c0.1081696-0.1033325,0.1321869-0.230835,0.1321869-0.230835
		c-0.0111237-2.3116455,1.7295685-5.2603149,4.2253113-5.5090027c2.849884-0.2838135,4.2748871,1.8511047,4.2748871,4.7329712
		V29.0090675L90.6096115,29.0090675z"/>
	<path fill-rule="evenodd" clip-rule="evenodd" d="M167.954071,45.2906227
		c-1.9537354-1.3017273-0.541626-4.6321716,1.4300537-4.7521667c0.3742828-0.0229797,0.4472961,0.1973267,4.6755371,0.3726501
		c5.1843719,0.1750793,5.898056-0.1385193,6.6714935,1.2454529c1.0249176,1.8339844-2.1635284,5.1182861-7.9767303,4.5958557
		C168.8121185,46.3980446,168.1587982,45.4270363,167.954071,45.2906227L167.954071,45.2906227z M178.0030212,26.7731361
		c0,3.4708557-1.5697174,6.1612549-5.0809021,6.1612549c-3.711792,0-4.9510498-3.6122131-4.9510498-7.0289307
		c0-3.525238,1.0548096-6.4380493,4.7666016-6.4380493C176.4996185,19.467411,178.0030212,23.3566322,178.0030212,26.7731361
		L178.0030212,26.7731361z M167.0681458,39.9309425c-1.6691132,0.6705322-3.0358582,1.1205444-3.1006622,3.233429
		c-0.1329041,4.3408813,6.2127991,4.7510376,9.2646027,4.7545471c8.0387115,0.009613,11.7311707-3.508606,10.330307-7.1240845
		c-1.4591064-3.7654419-5.923584-2.9367065-9.9295197-2.921936c-7.4994202,0.0276489-6.6091461-4.2630615-3.5560608-4.0888977
		c0.7037048,0.0403137,0.3678589,0.2406921,2.7997284,0.2406921c4.3393402,0,8.4979706-2.9725952,8.3746948-7.8691406
		c-0.0105591-0.4179077,0.092804-1.8452454-0.9518127-3.853363c2.3666077,0.0117188,0.8612213-0.0149841,6.1694641,0
		c0.2781982,0.0007019-0.2059021-5.3036804-2.1817932-3.2364807c-0.4353638,0.2641296-2.326416,1.8606873-4.9299622,1.2820435
		c-1.3086395-0.2904053-2.8564453-1.8937683-6.8143463-1.8937683c-4.2440643,0-7.9552765,3.4971008-7.9552765,8.1890564
		c0,2.5263367,1.1082458,4.9584351,3.0632935,6.2474976c-0.3619995,0.2191467-2.354538,1.7004089-2.354538,3.7626648
		C165.2962646,36.6532021,165.1611481,39.1031227,167.0681458,39.9309425L167.0681458,39.9309425z"/>
	<path d="M102.933876,18.9700661c-3.2238312-0.0531921-6.1280823,2.1047058-6.0316467,6.4263306
		c0.0877686,3.9335327,4.6027832,6.0653992,7.0974579,7.5616455c1.8478241,1.0530396,3.9914093,2.4215698,3.9167633,4.6094666
		c-0.0984344,2.8802185-2.184967,4.7561646-4.582962,4.5963135c-5.6217194-0.0932617-5.0702362-7.1470337-6.0866089-7.1470337
		c-0.6930389,0-0.5514832,1.7730713-0.5542908,2.7152405c-0.0066833,2.2333679,0.7415619,3.2460938,0.7259674,4.1252441
		c0.6854401,0.1258545-0.2164459,0.3196716,0.3465271,0.3196716c1.1085968,0,2.6811371,1.2257996,5.9148102,1.2257996
		c3.6236725,0.0531921,6.8742065-3.3044739,6.8742065-7.4603882c0-2.5579834-0.7461243-4.183136-4.2565918-6.3600159
		c-0.9083252-0.4356995-2.2687531-1.2138367-2.9373016-1.5799255c-2.9012146-1.5897522-4.0483704-2.6285095-4.12677-4.112793
		c-0.1362762-2.5748596,2.0485687-3.9070435,3.9403229-3.7204895c4.5294037-0.0801392,5.1386719,4.9950256,5.6006165,4.9950256
		c0.6929321,0,0.5081329-0.6649475,0.5081329-2.1614075c0-0.3876648,0.0461731-2.2718201-0.2309723-2.7150269
		c-0.554306-0.831543-3.7602081-1.3176575-4.5455933-1.3176575c-0.1987457,0-0.9394989-0.0229492-1.0658264-0.0264587
		C103.2202835,18.9368019,102.933876,18.9700661,102.933876,18.9700661L102.933876,18.9700661z"/>
	<path d="M116.2235184,7.1053205c0-0.5540771-0.2777252-0.8692932-0.5544128-0.8866577
		c-0.710968-0.044281-1.9041748,2.1452327-5.2764893,2.92102c-0.2309723,0.055542-1.0986328,0.1268005-1.0986328,0.4593811
		c0,1.1636658,3.499115-0.5533447,3.5571136,3.047821v26.5483398c0,2.7154846-2.3078918,2.3465881-2.7255402,3.2142334
		c-0.0718384,0.375,0.138504,0.5540466,0.4619446,0.5540466c0.7391052,0,2.7718353-0.2217102,4.2038727-0.2217102
		c1.4321442,0,3.7420349,0.2217102,4.7121124,0.2217102c0.5542908,0,0.7853851-0.1105957,0.7853851-0.7755432
		c-0.4825745-0.9473267-4.0653534,0.4985352-4.0653534-4.2672424V26.2282143c0-2.8261108,3.3261414-4.9875183,5.4049225-4.9875183
		c1.6168365,0,5.5898438,1.2745361,5.5898438,8.1461792v10.1409302c0,1.9950256-2.1025696,2.2024231-2.2637024,2.8261108
		c0,0.4436646,0.2772675,0.6095886,0.739212,0.6095886c0.5082397,0,1.9864502-0.2217102,3.7880936-0.2217102
		c1.7555847,0,3.2743378,0.1680603,4.105896,0.1680603c0.5082397,0,0.8443451-0.0747681,0.6986694-0.6665649
		c-0.0589447-0.2392883-0.0324554-0.5859375-0.7385101-0.4926758c-1.5986633-0.0531921-2.9573364-0.3264771-2.9573364-2.6106873
		v-9.254303c0-4.7657776-1.801651-10.9169617-7.7148209-10.9169617c-2.633194,0-4.8967896,1.4599304-6.6522675,3.4551697V7.1053205
		L116.2235184,7.1053205z"/>
	<path d="M136.8936462,11.7278786c-0.5411682,0-1.8939819,2.2718201-1.8939819,2.8666687
		c0,0.5950623,1.3528137,2.8127136,1.8939819,2.8127136c0.5861664,0,1.8938751-2.1635132,1.8938751-2.8127136
		C138.7875214,13.9455605,137.4798126,11.7278786,136.8936462,11.7278786L136.8936462,11.7278786z"/>
	<path d="M135.3252106,38.031559c0.1011353,3.3461914-1.7107086,3.665863-2.7099609,3.665863
		c-1.4985962-0.019928-1.1255798,0.1699219-1.1255798,0.6393738c0.0461578,0.5542908,0.9477997,0.5922852,2.4312897,0.5995483
		c0.5079956,0,1.7738647-0.1945496,3.252182-0.1945496c1.8938599,0,3.3260193,0.2217102,4.2962036,0.2217102
		c0.6004791,0,1.3505859-1.4460754,0.1316071-1.2395935c-0.9257813-0.0531921-2.9034424-0.4171753-2.9034424-2.417572V19.4121132
		c0-0.5542908-0.2770233-0.8866272-0.5542908-0.8866272c-1.0625458,0-1.7457428,1.9490356-4.7022705,2.9463196
		c-0.2309723,0.055542-0.6564789,0.1012573-0.6564789,0.4338074c0,1.1639099,2.6521912-1.0926514,2.540741,3.047821V38.031559
		L135.3252106,38.031559z"/>
	<path d="M148.0513,25.7294655c-0.0461731-0.8868713,1.5706635-4.3223572,5.4510956-4.3223572
		c3.7420349,0,5.4051514,4.1559448,5.4051514,6.9267273v10.3628845c0,3.6021118-1.4391785,2.7794495-1.9864349,3.6021118
		c-0.3070374,0.4610291,0.2308502,0.6646729,0.8313293,0.6646729c0.6005859,0,1.5707703-0.2217102,3.3262482-0.2217102
		c2.2635956,0,3.4187164,0.2217102,4.0191803,0.2217102c0.4619446,0,1.3016052-0.3564758,0.7853851-0.7755432
		c-1.1662445-0.9473267-3.6033936,0.1108704-3.6033936-3.7129517v-9.1436768c0-4.2114868-1.3398132-10.3626709-7.5299988-10.3626709
		c-4.4811401,0-6.7909088,4.2860413-6.6985626,3.6213379v-3.177887c0-0.5542908-0.2772675-0.8866272-0.5544128-0.8866272
		c-1.0625305,0-1.2931671,1.7770081-5.1830902,2.7892761c-0.2309723,0.055542-0.7519836,0.1806946-0.7755432,0.6042175
		c0,1.1636658,3.1201172-1.2702942,3.140625,3.0344543v13.7432861c0,2.9526672-2.3252258,2.9606323-2.738205,3.0007019
		c-0.45961,0-0.9790955,0.0799255-2.0782013-0.1333618c-1.1789093-0.2196045-0.2089386,0.8179626-0.3263702,1.0059509
		c-0.2935486,0.4699097,2.6483307,0.3934937,3.2486725,0.3934937c0.5544128,0,1.4783325-0.2217102,3.9268494-0.2217102
		c2.679245,0,3.6032715,0.2217102,4.3886719,0.2217102c0.6929169,0,1.48909-0.308197,1.0163574-0.7755432
		c-0.7436676-0.7354431-4.0653534,0.1108704-4.0653534-3.7129517V25.7294655L148.0513,25.7294655z"/>
	<path fill="#006F53" d="M37.8752518,35.2912636V6.0883527C27.144968,8.9472694,14.742074,8.9036598,3.3507476,6.1319623
		c0,1.3631287,0,22.0328979-0.0431213,29.2476501c0.0431213,2.5506897-0.5293274,4.3546753,9.5854492,8.0922546
		c2.3311157,0.7901001,5.2785044,1.8902588,7.7420053,2.7260132c2.1986694-0.7900696,4.4430542-1.5393677,6.5962524-2.4184875
		C30.6175938,42.3278847,37.9195328,41.0081215,37.8752518,35.2912636L37.8752518,35.2912636z"/>
	<polygon fill="#D63647" points="4.792398,14.8272743 36.4326553,14.8272743 36.4326553,33.6046791 4.792398,33.6046791 
		4.792398,14.8272743 	"/>
	<path fill="#E1C097" d="M36.3802872,15.3672829c-10.0730877,2.3312988-21.5947266,2.6831055-31.578886,0v-7.344635
		c9.6323547,2.1550903,22.0352478,2.4630432,31.578886,0V15.3672829L36.3802872,15.3672829z"/>
	<path fill="#E1C097" d="M36.3802872,26.1879005l-5.2767315,1.010376c-0.0448914-0.3965454,0-5.2778931,0-5.2778931
		c1.7583904-0.2627258,3.0344524-0.6145325,5.2767315-1.0985107V26.1879005L36.3802872,26.1879005z"/>
	<path fill="#E1C097" d="M10.344491,27.2861671c-1.8489685-0.176239-3.0799251-0.484436-5.5430903-1.0551453
		c0-1.2311707,0-4.5297546,0-5.4091492c2.2004395,0.6145325,3.9153743,0.6576538,5.5430903,1.0985107V27.2861671
		L10.344491,27.2861671z"/>
	<polygon fill="#E1C097" points="27.2749119,28.2539101 21.6014194,28.2539101 20.6350803,29.2223549 19.7562962,28.2539101 
		14.0823145,28.2539101 14.0823145,19.0181313 19.7562962,19.0181313 20.6350803,19.8972816 21.5578098,19.0181313 
		27.2749119,19.0181313 27.2749119,28.2539101 	"/>
	<polygon fill="#E1C097" points="29.7840366,30.8053017 22.0438023,30.8053017 20.6350803,32.0812416 19.2267246,30.8053017 
		11.618783,30.8053017 11.618783,20.8218727 12.893075,19.8539162 12.9384546,29.4412575 19.6238804,29.4412575 
		20.7235508,30.496891 21.9097385,29.4412575 28.420908,29.4412575 28.4637852,19.8539162 29.7840366,20.9090614 
		29.7840366,30.8053017 	"/>
	<path fill="#E1C097" d="M36.3802872,35.8621864c-0.4838867,3.6068115-4.6166058,4.7941589-5.9368572,5.4543762
		c-3.2556763,1.2738342-6.5112915,2.2870483-9.7627563,3.6054077C8.1004725,40.1725807,4.979074,39.5130653,4.8014007,35.8621864
		c0,0-0.0439453-3.7809448,0-4.0464783c9.8970642,2.2007751,21.0233154,2.3751526,31.578886,0V35.8621864L36.3802872,35.8621864z"/>
	<polygon fill="#006F53" points="21.6553135,37.5764198 21.6553135,35.3838234 20.8471775,34.5766335 20.0384922,35.3838234 
		20.0384922,37.5764198 20.6171665,38.7314186 20.6171665,40.6136818 21.0794468,40.6136818 21.0794468,38.7314186 
		21.6553135,37.5764198 	"/>
	<polygon fill="#006F53" points="24.8279209,38.7314186 24.8279209,37.6924171 22.636179,37.6924171 21.7133274,38.8476601 
		21.7133274,40.6136818 22.4060154,40.6136818 22.4060154,39.4814186 23.2133274,38.7314186 24.193491,39.3658485 
		24.8279209,38.7314186 	"/>
	<polygon fill="#006F53" points="16.877573,38.7314186 16.877573,37.6924171 19.0708714,37.6924171 19.992197,38.8476601 
		19.992197,40.6136818 19.299387,40.6136818 19.299387,39.4814186 18.4944248,38.7314186 17.5117893,39.3658485 
		16.877573,38.7314186 	"/>
	<polygon fill="#006F53" points="19.9824619,42.0775795 19.9824619,41.2687416 18.5976658,41.2675819 18.5976658,41.9032021 
		19.5205173,42.653904 19.9824619,42.0775795 	"/>
	<polygon fill="#006F53" points="21.6995029,42.0775795 21.6995029,41.2687416 23.084177,41.2675819 23.084177,41.9032021 
		22.1599216,42.653904 21.6995029,42.0775795 	"/>
	<polygon fill="#006F53" points="21.6553135,43.058445 21.0794468,42.193821 21.0794468,41.2687416 20.6171665,41.2687416 
		20.6171665,42.193821 19.9824619,43.058445 20.7891941,44.0974159 21.6553135,43.058445 	"/>
	<polygon fill="#006F53" points="10.8267298,35.6299171 10.8267298,34.0345192 10.2391443,33.4471779 9.6520472,34.0345192 
		9.6520472,35.6299171 10.0708704,36.4711037 10.0708704,37.8389015 10.4060144,37.8389015 10.4060144,36.4711037 
		10.8267298,35.6299171 	"/>
	<polygon fill="#006F53" points="13.1361475,36.4711037 13.1361475,35.7128944 11.5407495,35.7128944 10.8699732,36.5547829 
		10.8699732,37.8389015 11.3740931,37.8389015 11.3740931,37.0164833 11.9613428,36.4711037 12.6754847,36.933506 
		13.1361475,36.4711037 	"/>
	<polygon fill="#006F53" points="7.3498931,36.4711037 7.3498931,35.7128944 8.9452906,35.7128944 9.6155787,36.5547829 
		9.6155787,37.8389015 9.1117945,37.8389015 9.1117945,37.0164833 8.5243311,36.4711037 7.8103118,36.933506 7.3498931,36.4711037 	
		"/>
	<polygon fill="#006F53" points="9.6084375,38.9076576 9.6084375,38.3186684 8.600625,38.3161049 8.600625,38.7803993 
		9.2714014,39.325779 9.6084375,38.9076576 	"/>
	<polygon fill="#006F53" points="10.8574305,38.9076576 10.8574305,38.3186684 11.865243,38.3161049 11.865243,38.7803993 
		11.1926966,39.325779 10.8574305,38.9076576 	"/>
	<polygon fill="#006F53" points="10.8267298,39.6194496 10.4060144,38.9906349 10.4060144,38.3186684 10.0708704,38.3186684 
		10.0708704,38.9906349 9.6084375,39.6194496 10.1976709,40.3755531 10.8267298,39.6194496 	"/>
	<polygon fill="#006F53" points="32.078804,35.6299171 32.078804,34.0345192 31.4912205,33.4471779 30.9038792,34.0345192 
		30.9038792,35.6299171 31.3225803,36.4711037 31.3225803,37.8389015 31.6584568,37.8389015 31.6584568,36.4711037 
		32.078804,35.6299171 	"/>
	<polygon fill="#006F53" points="34.3874893,36.4711037 34.3874893,35.7128944 32.7929459,35.7128944 32.1223831,36.5547829 
		32.1223831,37.8389015 32.6262894,37.8389015 32.6262894,37.0164833 33.2130508,36.4711037 33.9277725,36.933506 
		34.3874893,36.4711037 	"/>
	<polygon fill="#006F53" points="28.6019688,36.4711037 28.6019688,35.7128944 30.1973362,35.7128944 30.8678989,36.5547829 
		30.8678989,37.8389015 30.3639927,37.8389015 30.3639927,37.0164833 29.7771091,36.4711037 29.0623875,36.933506 
		28.6019688,36.4711037 	"/>
	<polygon fill="#006F53" points="30.8608494,38.9076576 30.8608494,38.3186684 29.8530369,38.3161049 29.8530369,38.7803993 
		30.5251255,39.325779 30.8608494,38.9076576 	"/>
	<polygon fill="#006F53" points="32.1112442,38.9076576 32.1112442,38.3186684 33.1190567,38.3161049 33.1190567,38.7803993 
		32.4452286,39.325779 32.1112442,38.9076576 	"/>
	<polygon fill="#006F53" points="32.078804,39.6194496 31.6584568,38.9906349 31.6584568,38.3186684 31.3225803,38.3186684 
		31.3225803,38.9906349 30.8608494,39.6194496 31.4497166,40.3755531 32.078804,39.6194496 	"/>
	<polygon fill="#006F53" points="34.3100357,11.9542885 32.1617508,11.8980446 31.4442234,9.7500038 30.6721897,11.8980446 
		28.5799351,11.9542885 30.3424168,13.112339 29.7370396,15.2039223 31.4442234,13.9392128 33.2643814,15.2039223 
		32.6566544,13.112339 34.3100357,11.9542885 	"/>
	<path fill="#006F53" d="M13.052804,11.9542885l-1.9831543-0.0562439c0,0-0.8266296-2.1480408-0.8266296-2.0915527
		l-0.6598816,2.0915527L7.433084,11.9542885l1.7076716,1.1580505l-0.6054077,2.0915833l1.7076721-1.2647095l1.874176,1.2647095
		l-0.7177734-2.0915833L13.052804,11.9542885L13.052804,11.9542885z"/>
	<polygon fill="#006F53" points="23.6045017,12.7427406 21.4562168,12.6867104 20.7387791,10.759922 20.1331577,12.6867104 
		18.0394993,12.7427406 19.749033,14.0643654 19.0306797,16.1580544 20.7946873,14.8905373 22.6127415,16.1580544 
		21.8950901,14.1201515 23.6045017,12.7427406 	"/>
</g>
</svg>
