<?xml version="1.0" encoding="utf-8"?>
<!-- Generator: Adobe Illustrator 18.1.1, SVG Export Plug-In . SVG Version: 6.00 Build 0)  -->
<svg version="1.1" id="Layer_1" xmlns="http://www.w3.org/2000/svg" xmlns:xlink="http://www.w3.org/1999/xlink" x="0px" y="0px"
	 viewBox="0 0 192.7558899 175.7480469" enable-background="new 0 0 192.7558899 175.7480469" xml:space="preserve">
<g>
	<polygon fill-rule="evenodd" clip-rule="evenodd" fill="#FFFFFF" points="0,-8.5039673 192.7558899,-8.5039673 
		192.7558899,184.2519531 0,184.2519531 0,-8.5039673 	"/>
	<polygon fill-rule="evenodd" clip-rule="evenodd" fill="#00A598" points="26.3854675,175.7480469 40.0093231,175.7480469 
		40.0093231,0 26.3854675,0 26.3854675,175.7480469 	"/>
	<polygon fill-rule="evenodd" clip-rule="evenodd" fill="#FFFFFF" points="40.0093231,175.7480469 47.8431549,175.7480469 
		47.8431549,0 40.0093231,0 40.0093231,175.7480469 	"/>
	<polygon fill-rule="evenodd" clip-rule="evenodd" fill="#EA4E4E" points="47.8431549,175.7480469 165.0084229,175.7480469 
		165.0084229,0 47.8431549,0 47.8431549,175.7480469 	"/>
	<path fill-rule="evenodd" clip-rule="evenodd" fill="#FFFFFF" d="M73.7282715,24.1823425h1.3626404
		c10.5584717,0,16.007782,5.449646,16.007782,15.6673584c0,9.5368958-4.4277344,16.0081482-16.007782,16.0081482h-1.3626404
		V24.1823425L73.7282715,24.1823425z M64.1916809,63.6916809H77.474823c13.6238708,0,23.1607361-10.2180481,23.1607361-23.5012207
		c0-13.9646301-9.196106-24.1823425-23.1607361-24.1823425H64.1916809V63.6916809L64.1916809,63.6916809z"/>
	<polygon fill-rule="evenodd" clip-rule="evenodd" fill="#FFFFFF" points="119.3683777,63.6916809 110.1721802,63.6916809 
		110.1721802,24.1823425 100.6355591,24.1823425 100.6355591,16.0081177 128.9052429,16.0081177 128.9052429,24.1823425 
		119.3683777,24.1823425 119.3683777,63.6916809 	"/>
	<polygon fill-rule="evenodd" clip-rule="evenodd" fill="#FFFFFF" points="165.348877,55.8578491 165.348877,63.6916809 
		130.6080017,63.6916809 151.7249756,24.1823425 134.0140991,24.1823425 134.0140991,16.0081177 166.3707581,16.0081177 
		145.5942383,55.8578491 165.348877,55.8578491 	"/>
</g>
</svg>
